<svg height="1024" node-id="1" sillyvg="true" template-height="1024" template-width="1024" version="1.1" viewBox="0 0 1024 1024" width="1024" xmlns="http://www.w3.org/2000/svg" xmlns:xlink="http://www.w3.org/1999/xlink"><defs node-id="16"></defs><path d="M 0.00 0.00 L 1024.00 0.00 L 1024.00 1024.00 L 0.00 1024.00 Z" fill="#ffffff" fill-rule="nonzero" node-id="18" stroke="none" target-height="1024" target-width="1024" target-x="0" target-y="0"/><path d="M 546.00 118.50 L 554.60 116.20 L 563.20 114.50 L 571.70 113.20 L 580.20 112.40 L 588.80 112.00 L 597.30 112.10 L 605.80 112.60 L 614.30 113.50 L 622.70 114.80 L 631.00 116.50 L 641.30 119.20 L 651.50 122.40 L 661.50 126.20 L 671.30 130.50 L 680.90 135.30 L 690.20 140.70 L 699.30 146.40 L 708.10 152.70 L 716.60 159.40 L 724.80 166.50 L 732.50 173.90 L 740.00 181.80 L 747.00 190.00 L 753.60 198.50 L 759.70 207.20 L 765.40 216.30 L 740.90 204.50 L 738.10 216.80 L 734.90 229.00 L 731.30 241.10 L 727.10 253.10 L 722.50 264.90 L 717.40 276.40 L 711.90 287.70 L 705.80 298.80 L 699.30 309.50 L 692.30 319.90 L 684.80 329.90 L 676.90 339.40 L 670.20 346.80 L 663.20 353.90 L 655.90 360.60 L 648.20 367.00 L 640.20 373.10 L 632.00 378.80 L 623.50 384.10 L 614.60 389.00 L 605.40 393.50 L 595.80 397.70 L 580.40 398.40 L 554.70 400.60 L 534.40 403.90 L 524.40 406.10 L 514.60 408.80 L 504.80 411.90 L 495.30 415.50 L 485.90 419.80 L 476.70 424.60 L 472.90 414.10 L 469.40 403.40 L 466.30 392.50 L 463.60 381.50 L 461.50 370.50 L 459.90 359.30 L 458.70 342.50 L 459.00 325.70 L 459.70 317.40 L 461.00 309.00 L 462.60 300.70 L 464.80 292.40 L 474.30 262.70 L 484.50 233.10 L 463.00 185.20 L 471.20 174.40 L 479.90 163.90 L 485.90 157.10 L 492.20 150.60 L 498.80 144.40 L 505.70 138.60 L 513.00 133.30 L 520.60 128.60 L 526.50 125.50 L 532.70 122.70 L 539.20 120.40 L 546.00 118.50 Z M 527.20 192.80 L 523.20 206.00 L 521.60 212.70 L 520.40 219.40 L 519.80 228.30 L 520.00 232.60 L 520.60 236.90 L 521.70 241.10 L 523.20 245.20 L 525.30 249.10 L 528.00 253.00 L 531.30 256.90 L 555.70 259.60 L 580.60 261.00 L 590.00 238.20 L 592.00 232.20 L 593.40 226.20 L 594.00 222.20 L 594.00 214.50 L 593.40 210.70 L 592.30 207.10 L 590.50 203.60 L 588.90 201.20 L 584.50 196.50 L 581.50 194.20 L 579.10 190.80 L 576.70 188.20 L 574.20 186.30 L 571.40 184.80 L 568.60 183.90 L 565.60 183.40 L 559.40 183.50 L 556.20 184.10 L 551.30 185.30 L 531.70 191.80 L 527.20 192.80 Z" fill="#4d4f5a" fill-rule="nonzero" node-id="20" stroke="none" target-height="312.6" target-width="306.7" target-x="458.7" target-y="112"/><path d="M 527.50 218.20 L 540.30 203.20 L 544.00 199.70 L 547.80 196.70 L 550.60 195.00 L 553.40 193.70 L 556.50 192.80 L 559.50 192.40 L 562.90 192.40 L 566.50 193.10 L 570.20 194.70 L 573.20 196.60 L 575.50 198.70 L 577.50 201.20 L 579.00 203.90 L 580.20 206.90 L 581.30 211.70 L 581.90 216.90 L 582.00 222.20 L 581.70 238.50 L 582.00 243.60 L 582.60 248.30 L 571.00 248.10 L 558.30 247.20 L 551.90 246.10 L 546.00 244.60 L 542.20 243.20 L 538.80 241.50 L 533.60 237.70 L 530.30 233.50 L 529.00 231.00 L 528.10 228.40 L 527.50 225.40 L 527.30 222.10 L 527.50 218.20 Z" fill="#54484b" fill-rule="nonzero" node-id="22" stroke="none" target-height="55.90001" target-width="55.299988" target-x="527.3" target-y="192.4"/><path d="M 527.20 192.80 L 536.50 190.30 L 551.30 185.30 L 559.40 183.50 L 565.60 183.40 L 568.60 183.90 L 571.40 184.80 L 574.20 186.30 L 576.70 188.20 L 579.10 190.80 L 581.50 194.20 L 586.90 198.80 L 590.50 203.60 L 592.30 207.10 L 593.40 210.70 L 594.00 214.50 L 594.20 218.30 L 593.40 226.20 L 592.00 232.20 L 587.70 244.20 L 580.60 261.00 L 555.70 259.60 L 531.30 256.90 L 528.00 253.00 L 525.30 249.10 L 523.20 245.20 L 521.70 241.10 L 520.60 236.90 L 520.00 232.60 L 520.00 223.90 L 521.60 212.70 L 523.20 206.00 L 527.20 192.80 Z M 527.50 218.20 L 527.30 222.10 L 527.50 225.40 L 528.10 228.40 L 529.00 231.00 L 530.30 233.50 L 533.60 237.70 L 538.80 241.50 L 542.20 243.20 L 546.00 244.60 L 551.90 246.10 L 558.30 247.20 L 571.00 248.10 L 582.60 248.30 L 582.00 243.60 L 581.70 238.50 L 582.00 222.20 L 581.90 216.90 L 581.30 211.70 L 580.20 206.90 L 579.00 203.90 L 577.50 201.20 L 575.50 198.70 L 573.20 196.60 L 570.20 194.70 L 566.50 193.10 L 562.90 192.40 L 559.50 192.40 L 556.50 192.80 L 553.40 193.70 L 550.60 195.00 L 547.80 196.70 L 544.00 199.70 L 540.30 203.20 L 527.50 218.20 Z" fill="#bbadae" fill-rule="nonzero" node-id="24" stroke="none" target-height="77.600006" target-width="74.20001" target-x="520" target-y="183.4"/><path d="M 381.30 233.80 L 400.50 219.70 L 420.50 206.90 L 441.40 195.40 L 463.00 185.20 L 484.50 233.10 L 474.30 262.70 L 464.80 292.40 L 442.60 279.60 L 421.20 265.60 L 400.70 250.30 L 381.30 233.80 Z" fill="#f09925" fill-rule="nonzero" node-id="26" stroke="none" target-height="107.2" target-width="103.20001" target-x="381.3" target-y="185.2"/><path d="M 740.90 204.50 L 765.40 216.30 L 775.20 229.80 L 784.40 243.60 L 793.20 257.70 L 801.40 272.10 L 809.30 286.80 L 816.70 301.60 L 823.70 316.70 L 830.30 332.10 L 836.50 347.50 L 847.90 378.90 L 853.10 394.80 L 859.50 416.10 L 865.50 437.40 L 870.90 458.90 L 870.00 475.50 L 868.70 492.10 L 866.90 508.60 L 863.50 533.30 L 851.60 607.30 L 845.00 616.60 L 838.20 625.40 L 831.00 633.90 L 823.50 642.00 L 815.70 649.70 L 807.60 657.20 L 799.20 664.20 L 790.60 670.90 L 781.60 677.30 L 772.50 683.30 L 760.70 690.40 L 748.60 697.00 L 736.20 703.00 L 723.50 708.50 L 710.60 713.60 L 697.50 718.10 L 684.10 722.20 L 670.60 725.80 L 656.90 728.90 L 643.20 731.50 L 629.30 733.70 L 615.40 735.50 L 601.40 736.80 L 587.50 737.60 L 573.60 738.10 L 559.80 738.10 L 545.90 737.70 L 532.20 736.80 L 518.70 735.60 L 505.30 734.00 L 530.50 723.60 L 543.20 717.70 L 555.60 711.50 L 567.80 704.80 L 579.70 697.60 L 588.40 691.90 L 596.70 685.80 L 604.80 679.40 L 612.50 672.70 L 620.00 665.70 L 626.90 658.20 L 633.50 650.40 L 639.60 642.20 L 644.10 635.40 L 648.20 628.30 L 652.00 620.90 L 655.50 613.10 L 662.50 594.70 L 665.90 583.90 L 668.90 572.50 L 671.20 561.00 L 673.00 549.30 L 674.10 537.40 L 674.50 528.50 L 674.10 510.70 L 673.40 501.90 L 672.20 493.20 L 670.60 484.60 L 668.50 476.30 L 666.00 468.10 L 663.00 460.10 L 659.50 452.40 L 655.60 445.10 L 651.10 438.00 L 647.20 432.70 L 642.90 427.60 L 638.30 422.70 L 633.30 418.20 L 628.00 413.90 L 622.40 410.00 L 616.40 406.40 L 610.00 403.20 L 603.10 400.20 L 595.80 397.70 L 605.40 393.50 L 614.60 389.00 L 623.50 384.10 L 632.00 378.80 L 640.20 373.10 L 648.20 367.00 L 655.90 360.60 L 663.20 353.90 L 670.20 346.80 L 676.90 339.40 L 684.80 329.90 L 692.30 319.90 L 699.30 309.50 L 705.80 298.80 L 711.90 287.70 L 717.40 276.40 L 722.50 264.90 L 727.10 253.10 L 731.30 241.10 L 734.90 229.00 L 738.10 216.80 L 740.90 204.50 Z" fill="#ea5c4a" fill-rule="nonzero" node-id="28" stroke="none" target-height="533.6" target-width="365.60004" target-x="505.3" target-y="204.5"/><path d="M 476.70 424.60 L 485.90 419.80 L 495.30 415.50 L 504.80 411.90 L 514.60 408.80 L 524.40 406.10 L 534.40 403.90 L 554.70 400.60 L 580.40 398.40 L 595.80 397.70 L 603.10 400.20 L 610.00 403.20 L 616.40 406.40 L 622.40 410.00 L 628.00 413.90 L 633.30 418.20 L 638.30 422.70 L 642.90 427.60 L 647.20 432.70 L 651.10 438.00 L 655.60 445.10 L 659.50 452.40 L 663.00 460.10 L 666.00 468.10 L 668.50 476.30 L 670.60 484.60 L 672.20 493.20 L 673.40 501.90 L 674.10 510.70 L 674.50 528.50 L 674.10 537.40 L 673.00 549.30 L 671.20 561.00 L 668.90 572.50 L 665.90 583.90 L 662.50 594.70 L 655.50 613.10 L 652.00 620.90 L 648.20 628.30 L 644.10 635.40 L 639.60 642.20 L 633.50 650.40 L 626.90 658.20 L 620.00 665.70 L 612.50 672.70 L 604.80 679.40 L 596.70 685.80 L 588.40 691.90 L 579.70 697.60 L 567.80 704.80 L 555.60 711.50 L 543.20 717.70 L 530.50 723.60 L 505.30 734.00 L 493.40 734.10 L 481.60 734.70 L 469.80 735.70 L 458.00 737.20 L 446.40 739.10 L 434.90 741.60 L 423.50 744.60 L 412.30 748.20 L 403.40 751.40 L 394.70 755.00 L 386.20 759.00 L 377.80 763.40 L 369.50 768.20 L 364.30 764.30 L 359.00 760.80 L 353.60 757.70 L 348.00 755.00 L 340.40 751.90 L 332.50 749.30 L 324.50 747.30 L 308.00 744.20 L 299.60 743.10 L 261.20 739.20 L 248.60 737.50 L 240.30 736.00 L 232.10 734.20 L 224.10 732.00 L 226.10 726.50 L 231.10 716.10 L 238.30 705.00 L 247.90 693.20 L 279.50 659.80 L 297.80 637.40 L 333.20 581.40 L 348.40 559.50 L 364.20 537.90 L 375.00 523.70 L 386.20 509.80 L 397.80 496.20 L 406.70 486.30 L 415.90 476.60 L 435.00 458.00 L 444.90 449.10 L 455.20 440.60 L 465.80 432.50 L 476.70 424.60 Z" fill="#ec9845" fill-rule="nonzero" node-id="30" stroke="none" target-height="370.5" target-width="450.4" target-x="224.1" target-y="397.7"/><path d="M 870.90 458.90 L 881.80 467.10 L 892.50 475.60 L 902.80 484.40 L 912.90 493.50 L 922.70 503.00 L 934.60 515.20 L 946.00 527.80 L 957.00 540.90 L 967.60 554.30 L 942.90 563.40 L 918.00 571.80 L 901.40 577.10 L 867.70 586.80 L 848.80 625.60 L 863.50 533.30 L 866.90 508.60 L 868.70 492.10 L 870.00 475.50 L 870.90 458.90 Z" fill="#e17e33" fill-rule="nonzero" node-id="32" stroke="none" target-height="166.69998" target-width="118.79999" target-x="848.8" target-y="458.9"/><path d="M 79.00 490.00 L 88.30 489.60 L 106.70 490.10 L 115.80 491.00 L 127.90 492.60 L 139.90 494.90 L 151.80 497.70 L 163.50 501.00 L 175.20 504.70 L 198.20 513.30 L 220.60 523.20 L 168.10 546.90 L 180.60 551.80 L 193.00 557.00 L 205.10 562.70 L 217.00 568.80 L 228.60 575.40 L 239.90 582.50 L 248.10 588.20 L 256.00 594.10 L 263.70 600.50 L 271.20 607.10 L 278.30 614.10 L 285.10 621.50 L 291.60 629.20 L 297.80 637.40 L 279.50 659.80 L 274.40 653.10 L 269.10 647.00 L 263.60 641.30 L 257.90 636.20 L 251.80 631.30 L 239.20 622.50 L 232.60 618.70 L 223.60 614.00 L 214.30 609.70 L 204.80 605.80 L 190.10 600.70 L 175.20 596.00 L 129.50 583.50 L 104.50 575.90 L 77.00 566.00 L 73.50 564.00 L 70.40 561.70 L 67.50 559.00 L 65.00 556.10 L 62.80 552.90 L 60.90 549.40 L 58.30 541.80 L 57.00 533.50 L 113.60 528.00 L 95.80 509.40 L 87.20 499.80 L 79.00 490.00 Z" fill="#f68b45" fill-rule="nonzero" node-id="34" stroke="none" target-height="170.19998" target-width="240.79999" target-x="57" target-y="489.6"/><path d="M 168.10 546.90 L 220.60 523.20 L 277.00 552.10 L 333.20 581.40 L 297.80 637.40 L 291.60 629.20 L 285.10 621.50 L 278.30 614.10 L 271.20 607.10 L 263.70 600.50 L 256.00 594.10 L 248.10 588.20 L 239.90 582.50 L 228.60 575.40 L 217.00 568.80 L 205.10 562.70 L 193.00 557.00 L 180.60 551.80 L 168.10 546.90 Z" fill="#e3584c" fill-rule="nonzero" node-id="36" stroke="none" target-height="114.20001" target-width="165.1" target-x="168.1" target-y="523.2"/><path d="M 505.30 734.00 L 518.70 735.60 L 532.20 736.80 L 545.90 737.70 L 559.80 738.10 L 573.60 738.10 L 587.50 737.60 L 601.40 736.80 L 615.40 735.50 L 629.30 733.70 L 643.20 731.50 L 656.90 728.90 L 670.60 725.80 L 684.10 722.20 L 697.50 718.10 L 710.60 713.60 L 723.50 708.50 L 736.20 703.00 L 748.60 697.00 L 760.70 690.40 L 772.50 683.30 L 781.60 677.30 L 790.60 670.90 L 799.20 664.20 L 807.60 657.20 L 815.70 649.70 L 823.50 642.00 L 831.00 633.90 L 838.20 625.40 L 845.00 616.60 L 851.60 607.30 L 848.80 625.60 L 846.10 636.80 L 842.80 647.80 L 839.00 658.50 L 834.60 669.00 L 829.70 679.30 L 824.30 689.30 L 818.40 699.00 L 812.10 708.60 L 805.40 717.80 L 798.20 726.80 L 790.70 735.50 L 782.80 743.90 L 774.50 752.00 L 766.00 759.80 L 757.20 767.30 L 748.10 774.50 L 738.70 781.40 L 729.20 787.90 L 709.60 799.90 L 689.30 810.50 L 668.70 819.70 L 646.40 826.60 L 624.20 832.50 L 589.70 837.00 L 556.40 838.40 L 530.20 838.50 L 520.80 838.00 L 511.40 837.20 L 502.00 835.90 L 492.70 834.20 L 481.30 831.50 L 469.90 828.30 L 458.80 824.50 L 447.80 820.10 L 437.10 815.30 L 426.60 809.90 L 416.30 804.10 L 406.30 797.70 L 396.60 791.00 L 387.20 783.80 L 378.20 776.20 L 369.50 768.20 L 377.80 763.40 L 386.20 759.00 L 394.70 755.00 L 403.40 751.40 L 412.30 748.20 L 423.50 744.60 L 434.90 741.60 L 446.40 739.10 L 458.00 737.20 L 469.80 735.70 L 481.60 734.70 L 493.40 734.10 L 505.30 734.00 Z" fill="#fc8a47" fill-rule="nonzero" node-id="38" stroke="none" target-height="231.20001" target-width="482.09998" target-x="369.5" target-y="607.3"/><path d="M 624.20 832.50 L 646.40 826.60 L 668.70 819.70 L 667.70 829.90 L 667.70 835.50 L 668.90 861.40 L 668.90 869.90 L 668.60 875.60 L 668.00 880.90 L 666.90 886.10 L 665.80 889.80 L 664.30 893.40 L 660.40 899.90 L 657.90 902.70 L 654.80 905.40 L 651.30 907.90 L 647.00 910.10 L 643.10 908.40 L 639.70 906.50 L 636.80 904.40 L 634.40 902.10 L 630.60 896.60 L 627.90 890.50 L 626.00 881.40 L 625.60 876.50 L 625.40 869.10 L 625.70 846.40 L 625.50 841.50 L 624.20 832.50 Z" fill="#f6a035" fill-rule="nonzero" node-id="40" stroke="none" target-height="90.39996" target-width="44.700012" target-x="624.2" target-y="819.7"/><path d="M 539.80 838.60 L 573.00 837.90 L 589.70 837.00 L 588.90 849.70 L 586.00 874.90 L 583.90 887.40 L 581.20 899.80 L 577.90 912.00 L 548.80 909.00 L 546.00 891.50 L 543.60 873.90 L 539.80 838.60 Z" fill="#f8ab3a" fill-rule="nonzero" node-id="42" stroke="none" target-height="75" target-width="49.900024" target-x="539.8" target-y="837"/></svg>