<svg height="1024" node-id="1" sillyvg="true" template-height="1024" template-width="1024" version="1.1" viewBox="0 0 1024 1024" width="1024" xmlns="http://www.w3.org/2000/svg" xmlns:xlink="http://www.w3.org/1999/xlink"><defs node-id="7"></defs><path d="M 0.00 0.00 L 1024.00 0.00 L 1024.00 1024.00 L 0.00 1024.00 Z" fill="#ffffff" fill-rule="nonzero" node-id="9" stroke="none" target-height="1024" target-width="1024" target-x="0" target-y="0"/><path d="M 784.10 192.40 L 785.60 186.20 L 787.40 180.30 L 789.60 174.80 L 792.10 169.60 L 795.00 164.70 L 799.10 158.80 L 803.70 153.30 L 808.60 148.10 L 814.00 143.40 L 819.80 139.00 L 825.80 135.00 L 832.10 131.30 L 838.80 127.90 L 847.80 123.90 L 857.20 120.50 L 866.70 117.60 L 876.40 115.30 L 886.00 113.40 L 895.50 112.00 L 891.60 129.60 L 887.20 147.00 L 882.30 164.30 L 871.40 198.70 L 856.30 241.10 L 828.00 317.30 L 819.10 342.90 L 810.80 368.60 L 798.10 363.20 L 784.90 359.10 L 778.10 357.70 L 771.40 356.70 L 764.60 356.30 L 757.80 356.50 L 751.10 357.20 L 746.10 358.20 L 741.10 359.70 L 736.20 361.50 L 724.80 366.50 L 718.80 369.60 L 713.20 373.00 L 708.00 376.70 L 703.00 380.70 L 693.80 389.50 L 684.30 401.10 L 679.40 408.10 L 674.70 415.50 L 668.20 426.90 L 643.90 474.50 L 637.40 486.00 L 632.80 493.50 L 627.90 500.60 L 622.70 507.40 L 611.50 493.10 L 600.70 478.40 L 587.20 458.20 L 581.00 447.80 L 575.20 437.10 L 569.80 426.20 L 565.00 415.00 L 569.40 402.00 L 574.20 389.10 L 579.30 376.30 L 584.90 363.80 L 591.00 351.40 L 597.40 339.30 L 604.30 327.50 L 611.60 315.80 L 619.30 304.50 L 627.50 293.50 L 636.20 282.80 L 645.30 272.30 L 674.50 331.70 L 671.30 313.70 L 667.70 295.80 L 659.70 260.20 L 670.40 250.60 L 681.40 241.40 L 692.70 232.50 L 704.40 224.00 L 718.20 261.30 L 731.40 299.00 L 732.60 282.10 L 733.30 265.30 L 735.00 197.80 L 742.30 191.20 L 749.90 185.10 L 757.80 179.30 L 782.50 163.10 L 784.10 192.40 Z" fill="#2d3435" fill-rule="nonzero" node-id="11" stroke="none" target-height="395.4" target-width="330.5" target-x="565" target-y="112"/><path d="M 141.80 210.10 L 133.70 193.70 L 128.50 181.20 L 126.60 174.90 L 125.70 170.60 L 125.00 162.60 L 125.30 158.70 L 126.20 155.00 L 127.60 151.60 L 129.10 149.20 L 130.90 146.90 L 133.20 144.80 L 136.00 142.70 L 151.20 146.10 L 166.20 150.10 L 181.00 154.70 L 195.60 159.90 L 210.00 165.40 L 224.40 171.30 L 245.70 180.80 L 266.80 190.80 L 329.80 221.50 L 388.00 249.00 L 406.70 258.30 L 425.30 268.20 L 449.60 282.20 L 461.40 289.70 L 472.90 297.60 L 484.00 305.80 L 494.80 314.40 L 502.60 321.10 L 510.10 328.10 L 517.20 335.40 L 524.10 342.90 L 530.60 350.80 L 536.80 358.90 L 542.60 367.40 L 548.00 376.20 L 552.90 385.30 L 557.40 394.80 L 561.40 404.70 L 565.00 415.00 L 569.80 426.20 L 575.20 437.10 L 581.00 447.80 L 593.80 468.40 L 600.70 478.40 L 611.50 493.10 L 622.70 507.40 L 627.90 500.60 L 632.80 493.50 L 637.40 486.00 L 643.90 474.50 L 668.20 426.90 L 674.70 415.50 L 679.40 408.10 L 684.30 401.10 L 689.60 394.30 L 698.20 385.00 L 708.00 376.70 L 713.20 373.00 L 718.80 369.60 L 724.80 366.50 L 736.20 361.50 L 741.10 359.70 L 746.10 358.20 L 751.10 357.20 L 757.80 356.50 L 764.60 356.30 L 771.40 356.70 L 778.10 357.70 L 784.90 359.10 L 791.50 360.90 L 798.10 363.20 L 810.80 368.60 L 826.20 379.90 L 841.60 391.70 L 823.20 412.50 L 813.70 422.70 L 803.80 432.50 L 796.90 438.70 L 789.70 444.50 L 782.30 449.80 L 776.50 453.50 L 770.40 456.90 L 764.10 459.90 L 731.00 473.40 L 704.60 484.90 L 687.30 492.90 L 670.20 501.40 L 653.30 510.40 L 661.50 512.80 L 666.00 513.70 L 687.00 516.40 L 698.50 518.40 L 707.00 521.00 L 711.00 522.80 L 714.60 525.10 L 717.90 527.80 L 720.10 530.00 L 724.00 535.80 L 725.50 539.30 L 723.00 547.00 L 719.90 554.20 L 716.30 561.20 L 712.30 567.80 L 707.90 574.30 L 703.10 580.50 L 695.50 589.50 L 687.40 598.20 L 662.30 623.90 L 654.20 632.70 L 644.10 644.90 L 639.50 651.30 L 635.30 658.00 L 626.50 674.70 L 576.20 698.50 L 563.70 704.80 L 551.60 711.40 L 543.70 716.20 L 528.40 726.70 L 523.60 737.90 L 519.30 749.30 L 515.30 760.80 L 509.90 778.20 L 490.40 848.90 L 485.00 866.30 L 480.90 877.80 L 476.50 889.20 L 471.60 900.40 L 455.10 870.80 L 446.90 884.60 L 438.20 897.90 L 433.30 904.20 L 427.90 910.20 L 422.00 893.50 L 411.00 860.00 L 395.90 878.30 L 388.00 887.20 L 379.90 895.90 L 371.50 904.20 L 362.60 912.00 L 363.40 902.40 L 364.80 892.90 L 366.70 883.50 L 371.70 865.10 L 374.80 856.10 L 380.00 842.70 L 391.70 816.40 L 408.80 781.40 L 440.70 714.20 L 451.70 692.00 L 463.20 670.10 L 471.20 655.60 L 479.50 641.40 L 488.20 627.40 L 497.40 613.70 L 507.00 600.20 L 517.20 587.10 L 497.90 574.60 L 485.40 565.70 L 479.70 560.80 L 476.10 557.20 L 469.50 549.40 L 468.10 544.80 L 467.20 540.20 L 466.80 535.70 L 467.10 526.60 L 469.30 515.20 L 477.60 488.10 L 479.30 481.50 L 461.80 506.00 L 444.00 530.30 L 438.40 527.70 L 410.90 518.10 L 399.60 513.40 L 391.90 508.70 L 388.50 506.00 L 385.60 502.90 L 383.30 499.60 L 381.90 496.90 L 380.90 493.90 L 380.20 490.70 L 379.90 487.00 L 389.00 479.20 L 426.10 449.00 L 435.30 441.20 L 394.60 459.10 L 384.40 463.40 L 367.00 469.50 L 352.70 473.10 L 347.40 472.20 L 342.40 470.80 L 337.70 468.90 L 333.20 466.60 L 328.90 463.80 L 324.80 460.80 L 318.90 455.70 L 313.30 450.10 L 292.40 427.00 L 341.80 410.60 L 358.10 404.90 L 374.30 398.70 L 390.40 392.20 L 332.40 401.80 L 303.40 406.30 L 274.30 410.40 L 260.90 397.10 L 254.60 390.10 L 248.70 382.80 L 245.20 377.70 L 241.90 372.40 L 239.10 366.90 L 236.70 361.20 L 234.70 355.20 L 233.30 348.90 L 299.30 349.80 L 332.30 349.60 L 320.20 347.50 L 307.80 345.90 L 270.40 342.00 L 258.10 340.20 L 250.00 338.70 L 242.00 336.80 L 234.10 334.50 L 226.50 331.70 L 218.90 328.30 L 211.60 324.30 L 207.90 321.90 L 204.80 319.20 L 202.20 316.30 L 198.10 309.70 L 196.50 306.10 L 194.70 300.40 L 193.30 294.50 L 189.40 270.60 L 252.20 280.50 L 273.20 283.50 L 236.00 272.80 L 215.10 266.10 L 199.00 259.70 L 191.20 256.10 L 183.70 252.10 L 176.50 247.70 L 171.30 244.10 L 161.60 236.00 L 157.00 231.50 L 152.80 226.80 L 148.90 221.60 L 145.20 216.10 L 141.80 210.10 Z" fill="#353b3f" fill-rule="nonzero" node-id="13" stroke="none" target-height="769.3" target-width="716.6" target-x="125" target-y="142.7"/><path d="M 841.60 391.70 L 898.10 392.70 L 890.50 397.50 L 866.20 411.20 L 855.80 417.80 L 851.00 421.40 L 846.40 425.20 L 842.20 429.50 L 838.50 434.10 L 836.00 437.70 L 833.80 441.70 L 831.90 446.00 L 826.10 462.80 L 816.40 486.70 L 805.30 510.20 L 799.20 521.70 L 792.70 533.00 L 785.80 544.10 L 778.60 555.00 L 771.00 565.50 L 763.10 575.80 L 754.80 585.80 L 746.10 595.40 L 737.10 604.70 L 727.80 613.60 L 718.10 622.00 L 708.00 630.10 L 697.60 637.70 L 686.90 644.70 L 675.80 651.40 L 666.70 656.20 L 657.40 660.80 L 647.80 664.90 L 638.10 668.80 L 628.00 672.20 L 631.40 664.90 L 635.30 658.00 L 639.50 651.30 L 649.00 638.70 L 662.30 623.90 L 687.40 598.20 L 695.50 589.50 L 703.10 580.50 L 707.90 574.30 L 712.30 567.80 L 716.30 561.20 L 719.90 554.20 L 723.00 547.00 L 725.60 539.30 L 722.10 532.70 L 717.90 527.80 L 714.60 525.10 L 711.00 522.80 L 707.00 521.00 L 698.50 518.40 L 694.00 517.40 L 666.00 513.70 L 661.50 512.80 L 653.30 510.40 L 670.20 501.40 L 687.30 492.90 L 704.60 484.90 L 731.00 473.40 L 764.10 459.90 L 770.40 456.90 L 776.50 453.50 L 782.30 449.80 L 789.70 444.50 L 796.90 438.70 L 803.80 432.50 L 813.70 422.70 L 823.20 412.50 L 841.60 391.70 Z" fill="#e86756" fill-rule="nonzero" node-id="15" stroke="none" target-height="280.5" target-width="270.09998" target-x="628" target-y="391.7"/></svg>