<svg height="1024" node-id="1" sillyvg="true" template-height="1024" template-width="1024" version="1.1" viewBox="0 0 1024 1024" width="1024" xmlns="http://www.w3.org/2000/svg" xmlns:xlink="http://www.w3.org/1999/xlink"><defs node-id="12"></defs><path d="M 0.00 0.00 L 1024.00 0.00 L 1024.00 1024.00 L 0.00 1024.00 Z" fill="#ffffff" fill-rule="nonzero" node-id="14" stroke="none" target-height="1024" target-width="1024" target-x="0" target-y="0"/><path d="M 535.00 181.00 L 537.90 179.90 L 540.30 179.50 L 542.50 179.60 L 544.50 180.20 L 546.20 181.20 L 548.90 184.10 L 550.50 187.90 L 550.80 192.20 L 549.80 196.40 L 547.30 200.10 L 545.60 201.50 L 543.50 202.70 L 540.90 203.60 L 538.20 202.60 L 536.00 201.40 L 534.00 199.80 L 532.40 198.00 L 531.20 196.00 L 530.40 193.90 L 529.90 191.70 L 530.00 189.40 L 530.50 187.20 L 531.40 185.00 L 532.90 183.00 L 535.00 181.00 Z" fill="#fcfcfd" fill-rule="nonzero" node-id="16" stroke="none" target-height="24.100006" target-width="20.899963" target-x="529.9" target-y="179.5"/><path d="M 638.80 309.20 L 646.20 335.80 L 649.40 349.30 L 652.30 362.80 L 654.80 376.40 L 656.90 390.00 L 658.50 403.80 L 659.50 417.50 L 659.90 431.30 L 659.40 451.90 L 658.50 462.30 L 655.50 486.20 L 653.10 499.50 L 650.20 512.80 L 646.60 526.00 L 642.50 539.00 L 637.90 551.70 L 632.70 564.20 L 626.90 576.60 L 620.60 588.60 L 613.70 600.40 L 606.40 611.80 L 598.50 622.90 L 591.90 631.50 L 584.90 639.80 L 577.60 647.90 L 570.00 655.70 L 562.10 663.20 L 557.10 667.60 L 551.80 671.60 L 546.20 675.20 L 539.60 677.90 L 532.90 680.30 L 526.10 682.20 L 519.20 683.60 L 512.20 684.70 L 498.10 685.80 L 491.00 685.80 L 481.50 685.20 L 472.10 684.10 L 462.80 682.30 L 453.60 680.10 L 444.50 677.40 L 435.70 674.20 L 408.30 663.00 L 413.20 658.10 L 417.60 653.00 L 421.60 647.50 L 427.10 639.00 L 432.10 630.10 L 445.60 602.60 L 460.40 574.20 L 465.00 564.40 L 469.20 554.30 L 473.10 544.10 L 476.40 533.80 L 463.50 552.70 L 457.50 562.50 L 449.00 577.40 L 440.90 592.60 L 409.70 654.10 L 402.70 641.30 L 440.60 564.40 L 452.90 538.60 L 468.60 503.90 L 475.90 486.30 L 482.80 468.60 L 489.20 450.60 L 497.70 423.90 L 500.00 415.30 L 501.80 406.50 L 503.20 397.70 L 504.00 388.90 L 504.30 380.00 L 504.10 371.10 L 503.30 362.40 L 501.80 353.60 L 500.30 347.20 L 498.40 340.80 L 496.10 334.50 L 493.40 328.20 L 511.10 345.00 L 523.60 355.90 L 530.10 360.90 L 536.80 365.70 L 543.70 369.90 L 550.90 373.60 L 556.50 376.00 L 562.20 377.90 L 568.20 379.50 L 574.30 380.60 L 578.90 380.10 L 587.20 378.00 L 590.90 376.40 L 595.70 373.90 L 600.20 370.80 L 604.40 367.30 L 611.80 359.20 L 615.20 354.60 L 619.90 347.30 L 624.10 339.70 L 638.80 309.20 Z" fill="#f4dacc" fill-rule="nonzero" node-id="18" stroke="none" target-height="376.59998" target-width="257.2" target-x="402.7" target-y="309.2"/><path d="M 454.00 153.30 L 459.00 147.80 L 464.20 142.70 L 469.70 137.90 L 475.60 133.60 L 481.70 129.60 L 488.00 126.10 L 494.50 122.90 L 501.20 120.10 L 508.10 117.70 L 515.10 115.80 L 522.20 114.20 L 529.40 113.00 L 536.60 112.30 L 543.90 112.00 L 551.20 112.10 L 558.50 112.70 L 565.70 113.70 L 572.80 115.10 L 579.90 116.90 L 592.10 121.00 L 596.90 123.30 L 601.50 126.00 L 605.70 129.00 L 609.80 132.40 L 613.60 136.10 L 618.80 142.20 L 623.60 148.60 L 632.10 162.20 L 651.40 161.10 L 670.80 160.30 L 696.60 160.20 L 709.60 160.70 L 699.20 168.30 L 688.70 175.50 L 677.80 182.30 L 666.70 188.70 L 643.90 200.50 L 638.70 198.40 L 629.80 196.00 L 622.60 195.60 L 619.00 195.90 L 615.50 196.90 L 600.90 202.90 L 590.00 207.90 L 579.20 213.40 L 568.70 219.40 L 558.60 225.90 L 548.80 232.80 L 541.70 238.40 L 534.90 244.30 L 528.40 250.50 L 522.10 256.90 L 516.30 263.70 L 510.80 270.80 L 505.70 278.20 L 500.90 285.90 L 496.30 296.00 L 494.20 301.20 L 492.50 306.50 L 491.20 313.80 L 491.10 317.40 L 491.30 321.00 L 492.10 324.60 L 498.40 340.80 L 500.30 347.20 L 501.80 353.60 L 503.30 362.40 L 504.10 371.10 L 504.30 380.00 L 504.00 388.90 L 503.20 397.70 L 501.80 406.50 L 500.00 415.30 L 497.70 423.90 L 489.20 450.60 L 482.80 468.60 L 475.90 486.30 L 468.60 503.90 L 452.90 538.60 L 440.60 564.40 L 402.70 641.30 L 371.90 701.60 L 340.00 761.30 L 333.40 772.30 L 331.00 775.80 L 328.20 779.00 L 325.10 781.80 L 322.80 783.30 L 317.40 785.50 L 316.20 767.70 L 315.40 749.80 L 315.00 731.90 L 315.40 696.10 L 317.30 651.40 L 323.10 571.10 L 330.00 506.00 L 334.70 473.60 L 337.60 457.50 L 341.00 441.50 L 347.00 417.00 L 348.70 408.30 L 350.10 399.60 L 353.50 373.40 L 352.10 382.00 L 351.20 390.70 L 350.70 399.50 L 350.60 408.40 L 351.20 417.10 L 352.40 425.70 L 353.70 432.00 L 355.40 438.30 L 357.60 444.30 L 360.20 450.20 L 363.20 455.90 L 366.70 461.30 L 370.80 466.60 L 375.50 471.60 L 386.90 461.40 L 403.50 473.00 L 420.50 434.10 L 447.10 459.00 L 444.40 392.60 L 472.70 399.50 L 472.50 385.50 L 471.70 371.20 L 470.70 361.60 L 469.20 352.20 L 467.30 342.90 L 465.50 336.00 L 463.40 329.30 L 460.80 322.70 L 457.90 316.40 L 454.50 310.20 L 450.70 304.30 L 446.30 298.70 L 441.50 293.30 L 439.10 291.00 L 436.70 289.10 L 434.20 287.70 L 428.60 285.80 L 425.60 285.30 L 416.60 284.80 L 407.50 285.20 L 414.70 243.20 L 417.60 229.20 L 419.90 219.90 L 425.40 201.80 L 428.80 193.00 L 432.70 184.50 L 437.00 176.20 L 440.70 170.20 L 444.70 164.40 L 449.20 158.80 L 454.00 153.30 Z M 535.00 181.00 L 532.90 183.00 L 531.40 185.00 L 530.50 187.20 L 530.00 189.40 L 529.90 191.70 L 530.40 193.90 L 531.20 196.00 L 532.40 198.00 L 534.00 199.80 L 536.00 201.40 L 538.20 202.60 L 540.90 203.60 L 543.50 202.70 L 545.60 201.50 L 547.30 200.10 L 549.80 196.40 L 550.80 192.20 L 550.50 187.90 L 549.80 185.90 L 547.70 182.50 L 546.20 181.20 L 544.50 180.20 L 542.50 179.60 L 540.30 179.50 L 537.90 179.90 L 535.00 181.00 Z" fill="#38445d" fill-rule="nonzero" node-id="20" stroke="none" target-height="673.5" target-width="394.59998" target-x="315" target-y="112"/><path d="M 611.90 198.30 L 615.50 196.90 L 619.00 195.90 L 622.60 195.60 L 626.20 195.60 L 633.40 196.80 L 638.70 198.40 L 643.90 200.50 L 640.40 204.30 L 637.40 208.40 L 634.70 212.50 L 632.40 216.80 L 629.80 222.70 L 627.90 228.90 L 626.50 235.20 L 625.60 241.60 L 625.20 248.10 L 625.30 254.70 L 625.90 261.30 L 628.20 274.40 L 629.80 280.90 L 634.10 293.30 L 638.80 309.20 L 624.10 339.70 L 619.90 347.30 L 615.20 354.60 L 611.80 359.20 L 604.40 367.30 L 600.20 370.80 L 595.70 373.90 L 590.90 376.40 L 583.20 379.20 L 578.90 380.10 L 574.30 380.60 L 568.20 379.50 L 562.20 377.90 L 556.50 376.00 L 550.90 373.60 L 543.70 369.90 L 536.80 365.70 L 530.10 360.90 L 517.30 350.60 L 493.40 328.20 L 492.10 324.60 L 491.30 321.00 L 491.10 317.40 L 491.20 313.80 L 492.50 306.50 L 494.20 301.20 L 496.30 296.00 L 500.90 285.90 L 505.70 278.20 L 510.80 270.80 L 516.30 263.70 L 522.10 256.90 L 528.40 250.50 L 534.90 244.30 L 541.70 238.40 L 548.80 232.80 L 558.60 225.90 L 568.70 219.40 L 579.20 213.40 L 590.00 207.90 L 600.90 202.90 L 611.90 198.30 Z" fill="#f66f5d" fill-rule="nonzero" node-id="22" stroke="none" target-height="185" target-width="152.80002" target-x="491.1" target-y="195.6"/><path d="M 353.50 373.40 L 355.70 365.00 L 358.30 356.60 L 361.30 348.30 L 364.70 340.10 L 368.60 332.20 L 372.80 324.50 L 377.50 317.00 L 382.60 309.90 L 388.20 303.10 L 394.20 296.70 L 400.60 290.70 L 407.50 285.20 L 421.10 284.90 L 428.60 285.80 L 434.20 287.70 L 436.70 289.10 L 439.10 291.00 L 446.30 298.70 L 450.70 304.30 L 454.50 310.20 L 457.90 316.40 L 460.80 322.70 L 463.40 329.30 L 465.50 336.00 L 467.30 342.90 L 469.20 352.20 L 470.70 361.60 L 471.70 371.20 L 472.50 385.50 L 472.70 399.50 L 444.40 392.60 L 447.10 459.00 L 420.50 434.10 L 403.50 473.00 L 386.90 461.40 L 375.50 471.60 L 370.80 466.60 L 366.70 461.30 L 363.20 455.90 L 360.20 450.20 L 357.60 444.30 L 355.40 438.30 L 353.70 432.00 L 352.40 425.70 L 351.20 417.10 L 350.60 408.40 L 350.70 399.50 L 351.20 390.70 L 352.10 382.00 L 353.50 373.40 Z" fill="#f66f5d" fill-rule="nonzero" node-id="24" stroke="none" target-height="188.1" target-width="122.100006" target-x="350.6" target-y="284.9"/><path d="M 634.10 293.20 L 653.70 306.10 L 660.10 310.80 L 672.10 320.90 L 677.70 326.40 L 682.90 332.20 L 687.60 338.30 L 690.80 343.20 L 693.70 348.20 L 696.20 353.60 L 698.40 359.10 L 700.00 365.30 L 702.20 377.70 L 702.90 392.30 L 702.70 400.60 L 702.00 409.00 L 700.40 421.60 L 698.30 434.10 L 693.30 458.80 L 687.90 481.00 L 676.00 524.90 L 669.50 546.70 L 660.30 575.60 L 650.50 604.40 L 640.20 632.90 L 629.30 661.30 L 618.00 689.50 L 606.30 717.50 L 603.80 723.30 L 597.80 734.20 L 590.70 744.50 L 586.70 749.40 L 580.90 735.50 L 575.20 717.80 L 572.40 706.90 L 562.10 663.20 L 570.00 655.70 L 577.60 647.90 L 584.90 639.80 L 591.90 631.50 L 598.50 622.90 L 606.40 611.80 L 613.70 600.40 L 620.60 588.60 L 626.90 576.60 L 632.70 564.20 L 637.90 551.70 L 642.50 539.00 L 646.60 526.00 L 650.20 512.80 L 653.10 499.50 L 655.50 486.20 L 658.50 462.30 L 659.80 441.60 L 659.90 431.30 L 659.50 417.50 L 658.40 403.80 L 656.90 390.00 L 654.80 376.40 L 652.30 362.80 L 649.40 349.30 L 642.60 322.50 L 634.10 293.20 Z" fill="#38425c" fill-rule="nonzero" node-id="26" stroke="none" target-height="456.2" target-width="140.80005" target-x="562.1" target-y="293.2"/><path d="M 409.70 654.10 L 440.90 592.60 L 449.00 577.40 L 457.50 562.50 L 463.50 552.70 L 476.40 533.80 L 473.10 544.10 L 469.20 554.30 L 465.00 564.40 L 460.40 574.20 L 445.60 602.60 L 432.10 630.10 L 427.10 639.00 L 421.60 647.50 L 417.60 653.00 L 413.20 658.10 L 408.30 663.00 L 409.70 654.10 Z" fill="#d6b1a2" fill-rule="nonzero" node-id="28" stroke="none" target-height="129.20001" target-width="68.100006" target-x="408.3" target-y="533.8"/><path d="M 435.70 674.20 L 444.50 677.40 L 453.60 680.10 L 462.80 682.30 L 472.10 684.00 L 481.50 685.20 L 491.00 685.80 L 505.10 685.40 L 519.20 683.60 L 526.10 682.20 L 532.90 680.30 L 539.60 677.90 L 546.20 675.20 L 546.70 736.10 L 546.40 766.50 L 545.60 797.00 L 544.40 827.40 L 542.80 857.80 L 541.30 872.50 L 539.70 882.20 L 538.20 886.80 L 536.90 889.70 L 533.10 895.20 L 530.60 897.40 L 527.70 899.30 L 521.30 902.20 L 514.40 903.70 L 510.80 903.90 L 504.00 903.20 L 500.70 902.20 L 497.70 900.70 L 494.90 898.90 L 492.40 896.70 L 490.30 893.90 L 488.60 890.70 L 486.40 880.80 L 483.60 860.80 L 480.60 830.70 L 479.40 820.60 L 477.80 810.70 L 478.30 842.90 L 477.70 864.40 L 476.80 875.10 L 474.50 889.20 L 472.80 896.20 L 471.60 899.40 L 470.10 902.10 L 468.40 904.40 L 466.30 906.40 L 463.10 908.60 L 459.60 910.20 L 455.80 911.30 L 451.80 911.90 L 447.70 912.00 L 443.50 911.50 L 439.50 910.60 L 435.60 909.20 L 431.90 907.40 L 428.50 905.10 L 425.50 902.40 L 423.00 899.30 L 421.50 896.80 L 420.40 894.00 L 419.60 891.00 L 419.20 887.70 L 418.10 869.90 L 417.30 852.00 L 417.00 834.10 L 417.10 816.10 L 417.70 798.20 L 418.70 780.30 L 420.20 762.40 L 422.20 744.60 L 424.80 726.80 L 427.80 709.20 L 431.50 691.60 L 435.70 674.20 Z" fill="#37435c" fill-rule="nonzero" node-id="30" stroke="none" target-height="237.79999" target-width="129.70001" target-x="417" target-y="674.2"/></svg>